G75*
%MOIN*%
%OFA0B0*%
%FSLAX25Y25*%
%IPPOS*%
%LPD*%
%AMOC8*
5,1,8,0,0,1.08239X$1,22.5*
%
%ADD10C,0.07400*%
%ADD11C,0.02700*%
%ADD12C,0.00787*%
%ADD13C,0.03762*%
%ADD14C,0.00600*%
D10*
X0008136Y0014867D03*
X0018136Y0014867D03*
X0028136Y0014867D03*
X0038136Y0014867D03*
X0048136Y0014867D03*
X0058136Y0014867D03*
X0068136Y0014867D03*
X0078136Y0014867D03*
X0088136Y0014867D03*
X0098136Y0014867D03*
X0108136Y0014867D03*
X0118136Y0014867D03*
X0128136Y0014867D03*
D11*
X0102940Y0032583D03*
X0089149Y0044345D03*
X0111601Y0052662D03*
X0056749Y0050345D03*
X0053149Y0038345D03*
X0023806Y0031796D03*
X0013362Y0034389D03*
X0011955Y0041327D03*
X0011995Y0046363D03*
D12*
X0007270Y0045182D01*
X0007270Y0031008D01*
X0008058Y0030221D01*
X0022231Y0030221D01*
X0023806Y0031796D01*
X0024593Y0032583D01*
X0102940Y0032583D01*
X0073412Y0052662D02*
X0067900Y0047150D01*
X0067900Y0043607D01*
X0053149Y0038345D02*
X0052899Y0038095D01*
X0017113Y0038095D01*
X0012968Y0033950D01*
X0013362Y0034389D01*
X0073412Y0052662D02*
X0111601Y0052662D01*
D13*
X0067900Y0043607D03*
D14*
X0012375Y0012034D02*
X0011599Y0011258D01*
X0014674Y0011258D01*
X0013898Y0012034D01*
X0013136Y0013872D01*
X0013136Y0015861D01*
X0012375Y0017699D01*
X0010969Y0019105D01*
X0009131Y0019867D01*
X0007142Y0019867D01*
X0005304Y0019105D01*
X0005118Y0018920D01*
X0005118Y0056586D01*
X0131233Y0056586D01*
X0131233Y0018841D01*
X0130969Y0019105D01*
X0129131Y0019867D01*
X0127142Y0019867D01*
X0125304Y0019105D01*
X0123898Y0017699D01*
X0123136Y0015861D01*
X0123136Y0013872D01*
X0123898Y0012034D01*
X0124674Y0011258D01*
X0121599Y0011258D01*
X0121950Y0011609D01*
X0122413Y0012246D01*
X0122770Y0012947D01*
X0123013Y0013696D01*
X0123136Y0014473D01*
X0123136Y0014567D01*
X0118437Y0014567D01*
X0118437Y0015167D01*
X0123136Y0015167D01*
X0123136Y0015260D01*
X0123013Y0016037D01*
X0122770Y0016786D01*
X0122413Y0017487D01*
X0121950Y0018124D01*
X0121394Y0018680D01*
X0120757Y0019143D01*
X0120056Y0019500D01*
X0119307Y0019744D01*
X0118530Y0019867D01*
X0118436Y0019867D01*
X0118436Y0015167D01*
X0117836Y0015167D01*
X0117836Y0014567D01*
X0113136Y0014567D01*
X0113136Y0014473D01*
X0113260Y0013696D01*
X0113503Y0012947D01*
X0113860Y0012246D01*
X0114323Y0011609D01*
X0114674Y0011258D01*
X0111599Y0011258D01*
X0112375Y0012034D01*
X0113136Y0013872D01*
X0113136Y0015861D01*
X0112375Y0017699D01*
X0110969Y0019105D01*
X0109131Y0019867D01*
X0107142Y0019867D01*
X0105304Y0019105D01*
X0103898Y0017699D01*
X0103136Y0015861D01*
X0102375Y0017699D01*
X0100969Y0019105D01*
X0099131Y0019867D01*
X0097142Y0019867D01*
X0095304Y0019105D01*
X0093898Y0017699D01*
X0093136Y0015861D01*
X0092375Y0017699D01*
X0090969Y0019105D01*
X0089131Y0019867D01*
X0087142Y0019867D01*
X0085304Y0019105D01*
X0083898Y0017699D01*
X0083136Y0015861D01*
X0082375Y0017699D01*
X0080969Y0019105D01*
X0079131Y0019867D01*
X0077142Y0019867D01*
X0075304Y0019105D01*
X0073898Y0017699D01*
X0073136Y0015861D01*
X0072375Y0017699D01*
X0070969Y0019105D01*
X0069131Y0019867D01*
X0067142Y0019867D01*
X0065304Y0019105D01*
X0063898Y0017699D01*
X0063136Y0015861D01*
X0062375Y0017699D01*
X0060969Y0019105D01*
X0059131Y0019867D01*
X0057142Y0019867D01*
X0055304Y0019105D01*
X0053898Y0017699D01*
X0053136Y0015861D01*
X0052375Y0017699D01*
X0050969Y0019105D01*
X0049131Y0019867D01*
X0047142Y0019867D01*
X0045304Y0019105D01*
X0043898Y0017699D01*
X0043136Y0015861D01*
X0042375Y0017699D01*
X0040969Y0019105D01*
X0039131Y0019867D01*
X0037142Y0019867D01*
X0035304Y0019105D01*
X0033898Y0017699D01*
X0033136Y0015861D01*
X0032375Y0017699D01*
X0030969Y0019105D01*
X0029131Y0019867D01*
X0027142Y0019867D01*
X0025304Y0019105D01*
X0023898Y0017699D01*
X0023136Y0015861D01*
X0022375Y0017699D01*
X0020969Y0019105D01*
X0019131Y0019867D01*
X0017142Y0019867D01*
X0015304Y0019105D01*
X0013898Y0017699D01*
X0013136Y0015861D01*
X0013136Y0013872D01*
X0012375Y0012034D01*
X0012219Y0011878D02*
X0014054Y0011878D01*
X0013714Y0012477D02*
X0012559Y0012477D01*
X0012806Y0013075D02*
X0013466Y0013075D01*
X0013219Y0013674D02*
X0013054Y0013674D01*
X0013136Y0014272D02*
X0013136Y0014272D01*
X0013136Y0014871D02*
X0013136Y0014871D01*
X0013136Y0015469D02*
X0013136Y0015469D01*
X0013051Y0016068D02*
X0013222Y0016068D01*
X0013470Y0016666D02*
X0012803Y0016666D01*
X0012555Y0017265D02*
X0013718Y0017265D01*
X0014062Y0017864D02*
X0012211Y0017864D01*
X0011612Y0018462D02*
X0014661Y0018462D01*
X0015259Y0019061D02*
X0011014Y0019061D01*
X0009632Y0019659D02*
X0016641Y0019659D01*
X0019632Y0019659D02*
X0026641Y0019659D01*
X0025259Y0019061D02*
X0021014Y0019061D01*
X0021612Y0018462D02*
X0024661Y0018462D01*
X0024062Y0017864D02*
X0022211Y0017864D01*
X0022555Y0017265D02*
X0023718Y0017265D01*
X0023470Y0016666D02*
X0022803Y0016666D01*
X0023051Y0016068D02*
X0023222Y0016068D01*
X0023136Y0015861D02*
X0023136Y0013872D01*
X0023136Y0015861D01*
X0023136Y0015469D02*
X0023136Y0015469D01*
X0023136Y0014871D02*
X0023136Y0014871D01*
X0023136Y0014272D02*
X0023136Y0014272D01*
X0023136Y0013872D02*
X0022375Y0012034D01*
X0021599Y0011258D01*
X0024674Y0011258D01*
X0023898Y0012034D01*
X0023136Y0013872D01*
X0023054Y0013674D02*
X0023219Y0013674D01*
X0023466Y0013075D02*
X0022806Y0013075D01*
X0022559Y0012477D02*
X0023714Y0012477D01*
X0024054Y0011878D02*
X0022219Y0011878D01*
X0021621Y0011280D02*
X0024652Y0011280D01*
X0031599Y0011258D02*
X0032375Y0012034D01*
X0033136Y0013872D01*
X0033136Y0015861D01*
X0033136Y0013872D01*
X0033898Y0012034D01*
X0034674Y0011258D01*
X0031599Y0011258D01*
X0031621Y0011280D02*
X0034652Y0011280D01*
X0034054Y0011878D02*
X0032219Y0011878D01*
X0032559Y0012477D02*
X0033714Y0012477D01*
X0033466Y0013075D02*
X0032806Y0013075D01*
X0033054Y0013674D02*
X0033219Y0013674D01*
X0033136Y0014272D02*
X0033136Y0014272D01*
X0033136Y0014871D02*
X0033136Y0014871D01*
X0033136Y0015469D02*
X0033136Y0015469D01*
X0033051Y0016068D02*
X0033222Y0016068D01*
X0033470Y0016666D02*
X0032803Y0016666D01*
X0032555Y0017265D02*
X0033718Y0017265D01*
X0034062Y0017864D02*
X0032211Y0017864D01*
X0031612Y0018462D02*
X0034661Y0018462D01*
X0035259Y0019061D02*
X0031014Y0019061D01*
X0029632Y0019659D02*
X0036641Y0019659D01*
X0039632Y0019659D02*
X0046641Y0019659D01*
X0045259Y0019061D02*
X0041014Y0019061D01*
X0041612Y0018462D02*
X0044661Y0018462D01*
X0044062Y0017864D02*
X0042211Y0017864D01*
X0042555Y0017265D02*
X0043718Y0017265D01*
X0043470Y0016666D02*
X0042803Y0016666D01*
X0043051Y0016068D02*
X0043222Y0016068D01*
X0043136Y0015861D02*
X0043136Y0013872D01*
X0043136Y0015861D01*
X0043136Y0015469D02*
X0043136Y0015469D01*
X0043136Y0014871D02*
X0043136Y0014871D01*
X0043136Y0014272D02*
X0043136Y0014272D01*
X0043136Y0013872D02*
X0042375Y0012034D01*
X0041599Y0011258D01*
X0044674Y0011258D01*
X0043898Y0012034D01*
X0043136Y0013872D01*
X0043054Y0013674D02*
X0043219Y0013674D01*
X0043466Y0013075D02*
X0042806Y0013075D01*
X0042559Y0012477D02*
X0043714Y0012477D01*
X0044054Y0011878D02*
X0042219Y0011878D01*
X0041621Y0011280D02*
X0044652Y0011280D01*
X0051599Y0011258D02*
X0052375Y0012034D01*
X0053136Y0013872D01*
X0053136Y0015861D01*
X0053136Y0013872D01*
X0053898Y0012034D01*
X0054674Y0011258D01*
X0051599Y0011258D01*
X0051621Y0011280D02*
X0054652Y0011280D01*
X0054054Y0011878D02*
X0052219Y0011878D01*
X0052559Y0012477D02*
X0053714Y0012477D01*
X0053466Y0013075D02*
X0052806Y0013075D01*
X0053054Y0013674D02*
X0053219Y0013674D01*
X0053136Y0014272D02*
X0053136Y0014272D01*
X0053136Y0014871D02*
X0053136Y0014871D01*
X0053136Y0015469D02*
X0053136Y0015469D01*
X0053051Y0016068D02*
X0053222Y0016068D01*
X0053470Y0016666D02*
X0052803Y0016666D01*
X0052555Y0017265D02*
X0053718Y0017265D01*
X0054062Y0017864D02*
X0052211Y0017864D01*
X0051612Y0018462D02*
X0054661Y0018462D01*
X0055259Y0019061D02*
X0051014Y0019061D01*
X0049632Y0019659D02*
X0056641Y0019659D01*
X0059632Y0019659D02*
X0066641Y0019659D01*
X0065259Y0019061D02*
X0061014Y0019061D01*
X0061612Y0018462D02*
X0064661Y0018462D01*
X0064062Y0017864D02*
X0062211Y0017864D01*
X0062555Y0017265D02*
X0063718Y0017265D01*
X0063470Y0016666D02*
X0062803Y0016666D01*
X0063051Y0016068D02*
X0063222Y0016068D01*
X0063136Y0015861D02*
X0063136Y0013872D01*
X0063136Y0015861D01*
X0063136Y0015469D02*
X0063136Y0015469D01*
X0063136Y0014871D02*
X0063136Y0014871D01*
X0063136Y0014272D02*
X0063136Y0014272D01*
X0063136Y0013872D02*
X0062375Y0012034D01*
X0061599Y0011258D01*
X0064674Y0011258D01*
X0063898Y0012034D01*
X0063136Y0013872D01*
X0063054Y0013674D02*
X0063219Y0013674D01*
X0063466Y0013075D02*
X0062806Y0013075D01*
X0062559Y0012477D02*
X0063714Y0012477D01*
X0064054Y0011878D02*
X0062219Y0011878D01*
X0061621Y0011280D02*
X0064652Y0011280D01*
X0071599Y0011258D02*
X0072375Y0012034D01*
X0073136Y0013872D01*
X0073136Y0015861D01*
X0073136Y0013872D01*
X0073898Y0012034D01*
X0074674Y0011258D01*
X0071599Y0011258D01*
X0071621Y0011280D02*
X0074652Y0011280D01*
X0074054Y0011878D02*
X0072219Y0011878D01*
X0072559Y0012477D02*
X0073714Y0012477D01*
X0073466Y0013075D02*
X0072806Y0013075D01*
X0073054Y0013674D02*
X0073219Y0013674D01*
X0073136Y0014272D02*
X0073136Y0014272D01*
X0073136Y0014871D02*
X0073136Y0014871D01*
X0073136Y0015469D02*
X0073136Y0015469D01*
X0073051Y0016068D02*
X0073222Y0016068D01*
X0073470Y0016666D02*
X0072803Y0016666D01*
X0072555Y0017265D02*
X0073718Y0017265D01*
X0074062Y0017864D02*
X0072211Y0017864D01*
X0071612Y0018462D02*
X0074661Y0018462D01*
X0075259Y0019061D02*
X0071014Y0019061D01*
X0069632Y0019659D02*
X0076641Y0019659D01*
X0079632Y0019659D02*
X0086641Y0019659D01*
X0085259Y0019061D02*
X0081014Y0019061D01*
X0081612Y0018462D02*
X0084661Y0018462D01*
X0084062Y0017864D02*
X0082211Y0017864D01*
X0082555Y0017265D02*
X0083718Y0017265D01*
X0083470Y0016666D02*
X0082803Y0016666D01*
X0083051Y0016068D02*
X0083222Y0016068D01*
X0083136Y0015861D02*
X0083136Y0013872D01*
X0083136Y0015861D01*
X0083136Y0015469D02*
X0083136Y0015469D01*
X0083136Y0014871D02*
X0083136Y0014871D01*
X0083136Y0014272D02*
X0083136Y0014272D01*
X0083136Y0013872D02*
X0082375Y0012034D01*
X0081599Y0011258D01*
X0084674Y0011258D01*
X0083898Y0012034D01*
X0083136Y0013872D01*
X0083054Y0013674D02*
X0083219Y0013674D01*
X0083466Y0013075D02*
X0082806Y0013075D01*
X0082559Y0012477D02*
X0083714Y0012477D01*
X0084054Y0011878D02*
X0082219Y0011878D01*
X0081621Y0011280D02*
X0084652Y0011280D01*
X0091599Y0011258D02*
X0092375Y0012034D01*
X0093136Y0013872D01*
X0093136Y0015861D01*
X0093136Y0013872D01*
X0093898Y0012034D01*
X0094674Y0011258D01*
X0091599Y0011258D01*
X0091621Y0011280D02*
X0094652Y0011280D01*
X0094054Y0011878D02*
X0092219Y0011878D01*
X0092559Y0012477D02*
X0093714Y0012477D01*
X0093466Y0013075D02*
X0092806Y0013075D01*
X0093054Y0013674D02*
X0093219Y0013674D01*
X0093136Y0014272D02*
X0093136Y0014272D01*
X0093136Y0014871D02*
X0093136Y0014871D01*
X0093136Y0015469D02*
X0093136Y0015469D01*
X0093051Y0016068D02*
X0093222Y0016068D01*
X0093470Y0016666D02*
X0092803Y0016666D01*
X0092555Y0017265D02*
X0093718Y0017265D01*
X0094062Y0017864D02*
X0092211Y0017864D01*
X0091612Y0018462D02*
X0094661Y0018462D01*
X0095259Y0019061D02*
X0091014Y0019061D01*
X0089632Y0019659D02*
X0096641Y0019659D01*
X0099632Y0019659D02*
X0106641Y0019659D01*
X0105259Y0019061D02*
X0101014Y0019061D01*
X0101612Y0018462D02*
X0104661Y0018462D01*
X0104062Y0017864D02*
X0102211Y0017864D01*
X0102555Y0017265D02*
X0103718Y0017265D01*
X0103470Y0016666D02*
X0102803Y0016666D01*
X0103051Y0016068D02*
X0103222Y0016068D01*
X0103136Y0015861D02*
X0103136Y0013872D01*
X0103136Y0015861D01*
X0103136Y0015469D02*
X0103136Y0015469D01*
X0103136Y0014871D02*
X0103136Y0014871D01*
X0103136Y0014272D02*
X0103136Y0014272D01*
X0103136Y0013872D02*
X0102375Y0012034D01*
X0101599Y0011258D01*
X0104674Y0011258D01*
X0103898Y0012034D01*
X0103136Y0013872D01*
X0103054Y0013674D02*
X0103219Y0013674D01*
X0103466Y0013075D02*
X0102806Y0013075D01*
X0102559Y0012477D02*
X0103714Y0012477D01*
X0104054Y0011878D02*
X0102219Y0011878D01*
X0101621Y0011280D02*
X0104652Y0011280D01*
X0111621Y0011280D02*
X0114652Y0011280D01*
X0114127Y0011878D02*
X0112219Y0011878D01*
X0112559Y0012477D02*
X0113742Y0012477D01*
X0113461Y0013075D02*
X0112806Y0013075D01*
X0113054Y0013674D02*
X0113267Y0013674D01*
X0113168Y0014272D02*
X0113136Y0014272D01*
X0113136Y0014871D02*
X0117836Y0014871D01*
X0117836Y0015167D02*
X0113136Y0015167D01*
X0113136Y0015260D01*
X0113260Y0016037D01*
X0113503Y0016786D01*
X0113860Y0017487D01*
X0114323Y0018124D01*
X0114879Y0018680D01*
X0115516Y0019143D01*
X0116217Y0019500D01*
X0116966Y0019744D01*
X0117743Y0019867D01*
X0117836Y0019867D01*
X0117836Y0015167D01*
X0117836Y0015469D02*
X0118436Y0015469D01*
X0118437Y0014871D02*
X0123136Y0014871D01*
X0123103Y0015469D02*
X0123136Y0015469D01*
X0123222Y0016068D02*
X0123003Y0016068D01*
X0122809Y0016666D02*
X0123470Y0016666D01*
X0123718Y0017265D02*
X0122526Y0017265D01*
X0122139Y0017864D02*
X0124062Y0017864D01*
X0124661Y0018462D02*
X0121612Y0018462D01*
X0120871Y0019061D02*
X0125259Y0019061D01*
X0126641Y0019659D02*
X0119567Y0019659D01*
X0118436Y0019659D02*
X0117836Y0019659D01*
X0117836Y0019061D02*
X0118436Y0019061D01*
X0118436Y0018462D02*
X0117836Y0018462D01*
X0117836Y0017864D02*
X0118436Y0017864D01*
X0118436Y0017265D02*
X0117836Y0017265D01*
X0117836Y0016666D02*
X0118436Y0016666D01*
X0118436Y0016068D02*
X0117836Y0016068D01*
X0114661Y0018462D02*
X0111612Y0018462D01*
X0111014Y0019061D02*
X0115402Y0019061D01*
X0116706Y0019659D02*
X0109632Y0019659D01*
X0112211Y0017864D02*
X0114133Y0017864D01*
X0113747Y0017265D02*
X0112555Y0017265D01*
X0112803Y0016666D02*
X0113464Y0016666D01*
X0113270Y0016068D02*
X0113051Y0016068D01*
X0113136Y0015469D02*
X0113170Y0015469D01*
X0121621Y0011280D02*
X0124652Y0011280D01*
X0124054Y0011878D02*
X0122146Y0011878D01*
X0122530Y0012477D02*
X0123714Y0012477D01*
X0123466Y0013075D02*
X0122812Y0013075D01*
X0123006Y0013674D02*
X0123219Y0013674D01*
X0123136Y0014272D02*
X0123105Y0014272D01*
X0131014Y0019061D02*
X0131233Y0019061D01*
X0131233Y0019659D02*
X0129632Y0019659D01*
X0131233Y0020258D02*
X0005118Y0020258D01*
X0005118Y0020856D02*
X0131233Y0020856D01*
X0131233Y0021455D02*
X0005118Y0021455D01*
X0005118Y0022053D02*
X0131233Y0022053D01*
X0131233Y0022652D02*
X0005118Y0022652D01*
X0005118Y0023250D02*
X0131233Y0023250D01*
X0131233Y0023849D02*
X0005118Y0023849D01*
X0005118Y0024447D02*
X0131233Y0024447D01*
X0131233Y0025046D02*
X0005118Y0025046D01*
X0005118Y0025644D02*
X0131233Y0025644D01*
X0131233Y0026243D02*
X0005118Y0026243D01*
X0005118Y0026841D02*
X0131233Y0026841D01*
X0131233Y0027440D02*
X0005118Y0027440D01*
X0005118Y0028038D02*
X0131233Y0028038D01*
X0131233Y0028637D02*
X0005118Y0028637D01*
X0005118Y0029235D02*
X0131233Y0029235D01*
X0131233Y0029834D02*
X0005118Y0029834D01*
X0005118Y0030432D02*
X0131233Y0030432D01*
X0131233Y0031031D02*
X0005118Y0031031D01*
X0005118Y0031629D02*
X0131233Y0031629D01*
X0131233Y0032228D02*
X0014948Y0032228D01*
X0014863Y0032143D02*
X0015608Y0032888D01*
X0016012Y0033862D01*
X0016012Y0034599D01*
X0017814Y0036401D01*
X0050430Y0036401D01*
X0051286Y0035545D01*
X0052612Y0035545D01*
X0052762Y0035695D01*
X0053676Y0035695D01*
X0054650Y0036099D01*
X0055297Y0036745D01*
X0083812Y0036745D01*
X0084749Y0037683D01*
X0088762Y0041695D01*
X0089676Y0041695D01*
X0090650Y0042099D01*
X0091396Y0042844D01*
X0091799Y0043818D01*
X0091799Y0044873D01*
X0091396Y0045846D01*
X0090650Y0046592D01*
X0131233Y0046592D01*
X0131233Y0045994D02*
X0091249Y0045994D01*
X0091583Y0045395D02*
X0131233Y0045395D01*
X0131233Y0044797D02*
X0091799Y0044797D01*
X0091799Y0044198D02*
X0131233Y0044198D01*
X0131233Y0043600D02*
X0091708Y0043600D01*
X0091461Y0043001D02*
X0131233Y0043001D01*
X0131233Y0042402D02*
X0090954Y0042402D01*
X0089938Y0041804D02*
X0131233Y0041804D01*
X0131233Y0041205D02*
X0088272Y0041205D01*
X0087673Y0040607D02*
X0131233Y0040607D01*
X0131233Y0040008D02*
X0087075Y0040008D01*
X0086476Y0039410D02*
X0131233Y0039410D01*
X0131233Y0038811D02*
X0085878Y0038811D01*
X0085279Y0038213D02*
X0131233Y0038213D01*
X0131233Y0037614D02*
X0084681Y0037614D01*
X0084082Y0037016D02*
X0131233Y0037016D01*
X0131233Y0036417D02*
X0054969Y0036417D01*
X0053974Y0035819D02*
X0131233Y0035819D01*
X0131233Y0035220D02*
X0016633Y0035220D01*
X0016035Y0034622D02*
X0131233Y0034622D01*
X0131233Y0034023D02*
X0016012Y0034023D01*
X0015830Y0033425D02*
X0131233Y0033425D01*
X0131233Y0032826D02*
X0015546Y0032826D01*
X0014863Y0032143D02*
X0013889Y0031739D01*
X0012835Y0031739D01*
X0011861Y0032143D01*
X0011115Y0032888D01*
X0010712Y0033862D01*
X0010712Y0034917D01*
X0011115Y0035891D01*
X0011861Y0036636D01*
X0012835Y0037039D01*
X0013662Y0037039D01*
X0015419Y0038797D01*
X0016203Y0039581D01*
X0014031Y0039655D01*
X0013456Y0039080D01*
X0012482Y0038677D01*
X0011428Y0038677D01*
X0010454Y0039080D01*
X0009709Y0039825D01*
X0009305Y0040799D01*
X0009305Y0041854D01*
X0009709Y0042828D01*
X0010454Y0043573D01*
X0011428Y0043976D01*
X0012482Y0043976D01*
X0013456Y0043573D01*
X0014178Y0042852D01*
X0045909Y0041768D01*
X0054099Y0049958D01*
X0054099Y0050873D01*
X0054503Y0051846D01*
X0055248Y0052592D01*
X0056222Y0052995D01*
X0057276Y0052995D01*
X0058250Y0052592D01*
X0058996Y0051846D01*
X0059399Y0050873D01*
X0059399Y0049818D01*
X0058996Y0048844D01*
X0058250Y0048099D01*
X0057276Y0047695D01*
X0056362Y0047695D01*
X0048455Y0039789D01*
X0050879Y0039789D01*
X0050903Y0039846D01*
X0051648Y0040592D01*
X0052622Y0040995D01*
X0053676Y0040995D01*
X0054650Y0040592D01*
X0055297Y0039945D01*
X0082486Y0039945D01*
X0086499Y0043958D01*
X0086499Y0044873D01*
X0086903Y0045846D01*
X0087648Y0046592D01*
X0088622Y0046995D01*
X0089676Y0046995D01*
X0090650Y0046592D01*
X0087648Y0046592D02*
X0069737Y0046592D01*
X0069594Y0046449D02*
X0074114Y0050968D01*
X0109547Y0050968D01*
X0110100Y0050415D01*
X0111074Y0050012D01*
X0112128Y0050012D01*
X0113102Y0050415D01*
X0113848Y0051161D01*
X0114251Y0052135D01*
X0114251Y0053189D01*
X0113848Y0054163D01*
X0113102Y0054908D01*
X0112128Y0055312D01*
X0111074Y0055312D01*
X0110100Y0054908D01*
X0109547Y0054356D01*
X0072711Y0054356D01*
X0067199Y0048844D01*
X0066207Y0047852D01*
X0066207Y0046348D01*
X0066098Y0046304D01*
X0065203Y0045409D01*
X0064719Y0044240D01*
X0064719Y0042974D01*
X0065203Y0041805D01*
X0066098Y0040910D01*
X0067267Y0040426D01*
X0068533Y0040426D01*
X0069702Y0040910D01*
X0070597Y0041805D01*
X0071081Y0042974D01*
X0071081Y0044240D01*
X0070597Y0045409D01*
X0069702Y0046304D01*
X0069594Y0046348D01*
X0069594Y0046449D01*
X0070012Y0045994D02*
X0087050Y0045994D01*
X0086716Y0045395D02*
X0070603Y0045395D01*
X0070851Y0044797D02*
X0086499Y0044797D01*
X0086499Y0044198D02*
X0071081Y0044198D01*
X0071081Y0043600D02*
X0086140Y0043600D01*
X0085542Y0043001D02*
X0071081Y0043001D01*
X0070845Y0042402D02*
X0084943Y0042402D01*
X0084345Y0041804D02*
X0070596Y0041804D01*
X0069998Y0041205D02*
X0083746Y0041205D01*
X0083148Y0040607D02*
X0068971Y0040607D01*
X0066830Y0040607D02*
X0054614Y0040607D01*
X0055234Y0040008D02*
X0082549Y0040008D01*
X0083149Y0038345D02*
X0053149Y0038345D01*
X0051949Y0037145D01*
X0051013Y0035819D02*
X0017232Y0035819D01*
X0014237Y0037614D02*
X0005118Y0037614D01*
X0005118Y0037016D02*
X0012778Y0037016D01*
X0011642Y0036417D02*
X0005118Y0036417D01*
X0005118Y0035819D02*
X0011085Y0035819D01*
X0010837Y0035220D02*
X0005118Y0035220D01*
X0005118Y0034622D02*
X0010712Y0034622D01*
X0010712Y0034023D02*
X0005118Y0034023D01*
X0005118Y0033425D02*
X0010893Y0033425D01*
X0011177Y0032826D02*
X0005118Y0032826D01*
X0005118Y0032228D02*
X0011776Y0032228D01*
X0014836Y0038213D02*
X0005118Y0038213D01*
X0005118Y0038811D02*
X0011103Y0038811D01*
X0010124Y0039410D02*
X0005118Y0039410D01*
X0005118Y0040008D02*
X0009633Y0040008D01*
X0009385Y0040607D02*
X0005118Y0040607D01*
X0005118Y0041205D02*
X0009305Y0041205D01*
X0009305Y0041804D02*
X0005118Y0041804D01*
X0005118Y0042402D02*
X0009533Y0042402D01*
X0009882Y0043001D02*
X0005118Y0043001D01*
X0005118Y0043600D02*
X0010518Y0043600D01*
X0013393Y0043600D02*
X0047740Y0043600D01*
X0048339Y0044198D02*
X0005118Y0044198D01*
X0005118Y0044797D02*
X0048937Y0044797D01*
X0049536Y0045395D02*
X0005118Y0045395D01*
X0005118Y0045994D02*
X0050134Y0045994D01*
X0050733Y0046592D02*
X0005118Y0046592D01*
X0005118Y0047191D02*
X0051332Y0047191D01*
X0051930Y0047789D02*
X0005118Y0047789D01*
X0005118Y0048388D02*
X0052529Y0048388D01*
X0053127Y0048986D02*
X0005118Y0048986D01*
X0005118Y0049585D02*
X0053726Y0049585D01*
X0054099Y0050183D02*
X0005118Y0050183D01*
X0005118Y0050782D02*
X0054099Y0050782D01*
X0054309Y0051380D02*
X0005118Y0051380D01*
X0005118Y0051979D02*
X0054635Y0051979D01*
X0055233Y0052577D02*
X0005118Y0052577D01*
X0005118Y0053176D02*
X0071531Y0053176D01*
X0072129Y0053774D02*
X0005118Y0053774D01*
X0005118Y0054373D02*
X0109564Y0054373D01*
X0110251Y0054971D02*
X0005118Y0054971D01*
X0005118Y0055570D02*
X0131233Y0055570D01*
X0131233Y0056168D02*
X0005118Y0056168D01*
X0014029Y0043001D02*
X0047142Y0043001D01*
X0046543Y0042402D02*
X0027330Y0042402D01*
X0016033Y0039410D02*
X0013786Y0039410D01*
X0012808Y0038811D02*
X0015434Y0038811D01*
X0011955Y0041327D02*
X0046549Y0040145D01*
X0056749Y0050345D01*
X0059189Y0051380D02*
X0069735Y0051380D01*
X0069137Y0050782D02*
X0059399Y0050782D01*
X0059399Y0050183D02*
X0068538Y0050183D01*
X0067940Y0049585D02*
X0059302Y0049585D01*
X0059054Y0048986D02*
X0067341Y0048986D01*
X0066742Y0048388D02*
X0058539Y0048388D01*
X0057502Y0047789D02*
X0066207Y0047789D01*
X0066207Y0047191D02*
X0055857Y0047191D01*
X0055258Y0046592D02*
X0066207Y0046592D01*
X0065788Y0045994D02*
X0054660Y0045994D01*
X0054061Y0045395D02*
X0065198Y0045395D01*
X0064950Y0044797D02*
X0053463Y0044797D01*
X0052864Y0044198D02*
X0064719Y0044198D01*
X0064719Y0043600D02*
X0052266Y0043600D01*
X0051667Y0043001D02*
X0064719Y0043001D01*
X0064956Y0042402D02*
X0051069Y0042402D01*
X0050470Y0041804D02*
X0065204Y0041804D01*
X0065803Y0041205D02*
X0049872Y0041205D01*
X0049273Y0040607D02*
X0051684Y0040607D01*
X0051064Y0040008D02*
X0048675Y0040008D01*
X0045945Y0041804D02*
X0044860Y0041804D01*
X0058863Y0051979D02*
X0070334Y0051979D01*
X0070932Y0052577D02*
X0058265Y0052577D01*
X0070336Y0047191D02*
X0131233Y0047191D01*
X0131233Y0047789D02*
X0070934Y0047789D01*
X0071533Y0048388D02*
X0131233Y0048388D01*
X0131233Y0048986D02*
X0072131Y0048986D01*
X0072730Y0049585D02*
X0131233Y0049585D01*
X0131233Y0050183D02*
X0112541Y0050183D01*
X0113468Y0050782D02*
X0131233Y0050782D01*
X0131233Y0051380D02*
X0113938Y0051380D01*
X0114186Y0051979D02*
X0131233Y0051979D01*
X0131233Y0052577D02*
X0114251Y0052577D01*
X0114251Y0053176D02*
X0131233Y0053176D01*
X0131233Y0053774D02*
X0114009Y0053774D01*
X0113638Y0054373D02*
X0131233Y0054373D01*
X0131233Y0054971D02*
X0112951Y0054971D01*
X0109734Y0050782D02*
X0073927Y0050782D01*
X0073329Y0050183D02*
X0110661Y0050183D01*
X0089149Y0044345D02*
X0083149Y0038345D01*
X0014652Y0011280D02*
X0011621Y0011280D01*
X0005259Y0019061D02*
X0005118Y0019061D01*
X0005118Y0019659D02*
X0006641Y0019659D01*
M02*
