%
M48
M72
T01C0.01300
T02C0.02362
T03C0.04000
%
T01
X23806Y31796
X13362Y34389
X11955Y41327
X11995Y46363
X53149Y38345
X56749Y50345
X89149Y44345
X111601Y52662
X102940Y32583
T02
X67900Y43607
T03
X8136Y14867
X18136Y14867
X28136Y14867
X38136Y14867
X48136Y14867
X58136Y14867
X68136Y14867
X78136Y14867
X88136Y14867
X98136Y14867
X108136Y14867
X118136Y14867
X128136Y14867
M30
